<svg width="30" height="30" viewBox="0 0 30 30" fill="none" xmlns="http://www.w3.org/2000/svg">
<path d="M15.3401 9.85654L14.3782 8.89457C13.4853 8.00165 12.2742 7.5 11.0114 7.5C9.74859 7.5 8.5375 8.00165 7.64457 8.89457C6.75165 9.7875 6.25 10.9986 6.25 12.2614C6.25 13.5242 6.75165 14.7353 7.64457 15.6282L12.4334 20.417C12.4403 20.424 12.4473 20.431 12.4542 20.438L14.8591 22.8428C14.9919 22.9756 15.166 23.0421 15.3401 23.0421" stroke="#0D1519" stroke-width="2" stroke-linecap="round" stroke-linejoin="round"/>
<path d="M15.3403 9.85647L16.3022 8.89457C17.1952 8.00165 18.4063 7.5 19.669 7.5C20.9318 7.5 22.1429 8.00165 23.0358 8.89457C23.9288 9.7875 24.4304 10.9986 24.4304 12.2614C24.4304 13.5242 23.9288 14.7353 23.0358 15.6282L15.8213 22.8428C15.6885 22.9756 15.5144 23.042 15.3403 23.042" stroke="#0D1519" stroke-width="2" stroke-linecap="round" stroke-linejoin="round"/>
</svg>
