<svg width="30" height="30" viewBox="0 0 30 30" fill="none" xmlns="http://www.w3.org/2000/svg">
<path d="M21.146 24.7762H7.60429C6.85642 24.7762 6.25012 24.1699 6.25012 23.422V22.9696C6.25012 21.0018 7.47094 19.2405 9.31359 18.5499C12.5771 17.3267 16.1732 17.3267 19.4367 18.5499C21.2793 19.2405 22.5001 21.0018 22.5001 22.9696V23.422C22.5001 24.1699 21.8938 24.7762 21.146 24.7762Z" stroke="#0D1519" stroke-width="2" stroke-linecap="round" stroke-linejoin="round"/>
<path d="M12.6608 14.2364C13.9568 14.902 15.4942 14.902 16.7901 14.2364C17.9962 13.6168 18.8603 12.4884 19.144 11.1626L19.2197 10.8087C19.5098 9.45284 19.1999 8.03777 18.3697 6.92725L18.2481 6.76465C17.4177 5.65399 16.1122 5 14.7255 5C13.3387 5 12.0332 5.65399 11.2028 6.76465L11.0813 6.92725C10.251 8.03777 9.94113 9.45284 10.2312 10.8087L10.307 11.1626C10.5907 12.4884 11.4548 13.6168 12.6608 14.2364Z" stroke="#0D1519" stroke-width="2" stroke-linecap="round" stroke-linejoin="round"/>
</svg>
